<?xml version="1.0" standalone="no"?>
<!DOCTYPE svg PUBLIC "-//W3C//DTD SVG 20010904//EN"
 "http://www.w3.org/TR/2001/REC-SVG-20010904/DTD/svg10.dtd">
<svg version="1.0" xmlns="http://www.w3.org/2000/svg"
 width="394.000000pt" height="394.000000pt" viewBox="0 0 394.000000 394.000000"
 preserveAspectRatio="xMidYMid meet">
<metadata>
Created by potrace 1.11, written by Peter Selinger 2001-2013
</metadata>
<g transform="translate(0.000000,394.000000) scale(0.100000,-0.100000)"
fill="#000000" stroke="none">
<path d="M1730 3933 c-37 -4 -180 -29 -215 -37 -11 -2 -41 -9 -66 -15 -25 -6
-90 -25 -145 -44 -630 -215 -1113 -759 -1253 -1412 -29 -135 -36 -212 -36
-415 0 -293 24 -433 117 -680 41 -110 151 -294 250 -417 51 -64 64 -72 188
-104 118 -31 445 -33 595 -5 11 2 40 7 65 11 25 4 54 9 65 11 11 3 36 7 55 10
19 3 38 8 41 10 3 2 19 5 35 8 51 9 295 83 418 127 l119 42 -107 54 c-196 97
-314 171 -461 289 -291 233 -502 515 -634 847 -17 43 -31 85 -31 94 0 24 94
136 210 250 66 65 220 183 312 241 70 43 260 142 275 142 4 0 21 7 36 15 52
27 272 92 372 111 143 25 267 37 395 38 95 0 243 -9 290 -19 13 -2 42 -7 65
-11 88 -13 296 -75 398 -119 13 -6 17 -2 18 16 1 13 3 35 5 49 6 46 5 264 -1
325 -7 72 -24 184 -31 207 -7 23 -166 124 -301 192 -62 31 -115 56 -119 56 -4
0 -35 11 -68 24 -69 28 -266 80 -339 91 -27 3 -59 9 -70 12 -28 6 -401 12
-447 6z"/>
<path d="M3131 3510 c45 -201 58 -599 25 -790 -3 -14 -7 -43 -10 -65 -23 -177
-109 -467 -185 -623 -17 -34 -31 -65 -31 -67 0 -12 -108 -196 -161 -275 -135
-203 -320 -402 -504 -542 -375 -285 -825 -438 -1285 -436 -162 1 -287 14 -419
44 -35 8 -66 13 -68 11 -5 -5 93 -89 172 -148 231 -172 559 -309 822 -345 26
-3 57 -8 68 -11 11 -3 106 -7 210 -8 178 -4 209 -2 399 29 135 22 369 103 511
177 339 177 611 441 799 774 93 166 193 446 212 597 3 24 7 49 10 57 16 48 23
311 11 451 -29 361 -172 723 -398 1011 -59 75 -171 199 -180 199 -4 0 -3 -18
2 -40z"/>
<path d="M3650 2829 c0 -3 9 -32 20 -65 21 -61 55 -186 64 -239 3 -16 8 -39
10 -50 2 -12 7 -48 11 -80 4 -33 9 -69 11 -80 5 -23 5 -319 0 -350 -1 -11 -6
-49 -10 -85 -48 -408 -253 -825 -555 -1129 -156 -157 -375 -314 -541 -388 -19
-8 -60 -26 -90 -40 -30 -14 -59 -26 -65 -27 -5 -1 -14 -4 -20 -7 -41 -25 -317
-92 -430 -105 -33 -4 -73 -8 -90 -10 -42 -5 -282 -4 -330 1 -349 37 -637 139
-916 323 -59 39 -110 75 -113 81 -4 6 -17 16 -29 22 -37 19 122 -129 218 -203
259 -201 529 -315 905 -383 78 -14 415 -14 510 0 111 16 144 22 168 29 9 3 28
7 42 10 14 3 61 16 106 29 808 247 1362 1001 1356 1850 -2 255 -58 519 -159
752 -40 92 -72 155 -73 144z"/>
</g>
</svg>
